<svg viewBox="0 0 482 482" fill="none" xmlns="http://www.w3.org/2000/svg">
    <path opacity="0.3"
        d="M316.554 269.319C316.471 282.281 316.617 284.765 313.819 296.828C308.794 313.112 275.254 344.123 244.211 348.731C184.207 358.289 126.686 309.605 130.394 248.355C132.402 194.03 179.367 150.968 233.643 153.56C316.693 145.258 312.804 26.7483 229.415 23.8729C192.878 23.7577 163.397 54.3281 164.521 90.6041C163.546 145.058 118.106 188.784 63.6621 187.686C-18.3992 192.822 -20.476 308.972 61.0637 317.303C115.354 314.51 162.55 357.462 164.661 411.822C162.027 448.513 191.573 481.53 229.418 481.257C264.326 481.438 294.312 452.542 293.792 418.335C291.917 362.552 339.625 314.979 395.171 316.955C429.397 317.566 458.308 287.486 458.127 252.615C458.283 194.575 386.491 165.732 346.457 207.608C325.735 235.446 283.328 238.588 258.867 213.914C250.24 207.331 239.36 204.005 227.581 204.005C148.094 213.762 180.636 340.832 257.623 301.781C260.115 299.909 271.03 292.149 272.762 283.487C273.56 279.572 270.337 273.196 266.076 273.37C264.862 273.439 264.101 273.993 260.739 273.924C241.896 275.693 243.458 250.26 260.463 253.1H290.779C303.964 253.193 318.631 250.031 316.554 269.319Z"
        stroke="url(#paint0_linear)" />
    <path opacity="0.3"
        d="M327.991 257.883C327.907 270.845 328.054 273.329 325.255 285.392C320.23 301.676 286.691 332.687 255.647 337.295C195.643 346.853 138.123 298.169 141.83 236.919C143.839 182.594 190.803 139.532 245.08 142.124C328.129 133.822 324.241 15.3123 240.852 12.4368C204.314 12.3217 174.833 42.8921 175.958 79.1681C174.982 133.622 129.542 177.348 75.0984 176.25C-6.96288 181.386 -9.03972 297.536 72.5001 305.867C126.791 303.074 173.986 346.026 176.097 400.385C173.463 437.077 203.009 470.094 240.854 469.821C275.762 470.002 305.748 441.106 305.228 406.898C303.353 351.116 351.061 303.543 406.607 305.519C440.833 306.13 469.744 276.05 469.563 241.179C469.72 183.139 397.927 154.296 357.893 196.172C337.172 224.01 294.765 227.152 270.304 202.478C261.676 195.895 250.797 192.569 239.017 192.569C159.53 202.326 192.072 329.396 269.059 290.345C271.551 288.473 282.466 280.713 284.199 272.051C284.996 268.136 281.773 261.76 277.512 261.934C276.299 262.003 275.537 262.557 272.176 262.488C253.332 264.257 254.894 238.824 271.899 241.664H302.216C315.4 241.757 330.068 238.595 327.991 257.883Z"
        stroke="url(#paint1_linear)" />
    <g style="mix-blend-mode:screen" opacity="0.5">
        <path
            d="M339.427 246.447C339.344 259.409 339.49 261.893 336.691 273.956C331.666 290.24 298.127 321.251 267.083 325.858C207.079 335.417 149.559 286.732 153.267 225.483C155.275 171.157 202.239 128.096 256.516 130.687C339.565 122.386 335.677 3.87574 252.288 1.00032C215.75 0.885144 186.27 31.4556 187.394 67.7315C186.418 122.186 140.978 165.911 86.5347 164.813C4.47344 169.949 2.3966 286.1 83.9364 294.43C138.227 291.637 185.422 334.59 187.533 388.949C184.9 425.64 214.445 458.658 252.29 458.384C287.199 458.565 317.185 429.669 316.664 395.462C314.79 339.679 362.498 292.106 418.044 294.082C452.269 294.693 481.18 264.613 480.999 229.743C481.156 171.702 409.364 142.859 369.33 184.735C348.608 212.574 306.201 215.715 281.74 191.041C273.112 184.459 262.233 181.133 250.454 181.133C170.967 190.889 203.509 317.959 280.496 278.909C282.988 277.037 293.903 269.276 295.635 260.614C296.432 256.699 293.209 250.324 288.948 250.498C287.735 250.566 286.973 251.121 283.612 251.051C264.769 252.82 266.331 227.387 283.335 230.228H313.652C326.837 230.32 341.504 227.158 339.427 246.447Z"
            fill="url(#paint2_linear)" fill-opacity="0.1" />
        <path
            d="M339.427 246.447C339.344 259.409 339.49 261.893 336.691 273.956C331.666 290.24 298.127 321.251 267.083 325.858C207.079 335.417 149.559 286.732 153.267 225.483C155.275 171.157 202.239 128.096 256.516 130.687C339.565 122.386 335.677 3.87574 252.288 1.00032C215.75 0.885144 186.27 31.4556 187.394 67.7315C186.418 122.186 140.978 165.911 86.5347 164.813C4.47344 169.949 2.3966 286.1 83.9364 294.43C138.227 291.637 185.422 334.59 187.533 388.949C184.9 425.64 214.445 458.658 252.29 458.384C287.199 458.565 317.185 429.669 316.664 395.462C314.79 339.679 362.498 292.106 418.044 294.082C452.269 294.693 481.18 264.613 480.999 229.743C481.156 171.702 409.364 142.859 369.33 184.735C348.608 212.574 306.201 215.715 281.74 191.041C273.112 184.459 262.233 181.133 250.454 181.133C170.967 190.889 203.509 317.959 280.496 278.909C282.988 277.037 293.903 269.276 295.635 260.614C296.432 256.699 293.209 250.324 288.948 250.498C287.735 250.566 286.973 251.121 283.612 251.051C264.769 252.82 266.331 227.387 283.335 230.228H313.652C326.837 230.32 341.504 227.158 339.427 246.447Z"
            stroke="url(#paint3_linear)" />
    </g>
    <defs>
        <linearGradient id="paint0_linear" x1="453.65" y1="252.565" x2="1" y2="252.565" gradientUnits="userSpaceOnUse">
            <stop stop-color="#3064B0" stop-opacity="0.5" />
            <stop offset="0.243021" stop-color="#206BD8" />
            <stop offset="0.492823" stop-color="#2572FF" />
            <stop offset="0.769959" stop-color="#2089DD" />
            <stop offset="1" stop-color="#325F83" stop-opacity="0.5" />
        </linearGradient>
        <linearGradient id="paint1_linear" x1="465.086" y1="241.129" x2="12.4363" y2="241.129"
            gradientUnits="userSpaceOnUse">
            <stop stop-color="#3064B0" stop-opacity="0.5" />
            <stop offset="0.243021" stop-color="#206BD8" />
            <stop offset="0.492823" stop-color="#2572FF" />
            <stop offset="0.769959" stop-color="#2089DD" />
            <stop offset="1" stop-color="#325F83" stop-opacity="0.5" />
        </linearGradient>
        <linearGradient id="paint2_linear" x1="481" y1="229.693" x2="23.8726" y2="229.693"
            gradientUnits="userSpaceOnUse">
            <stop stop-color="#3064B0" stop-opacity="0" />
            <stop offset="0.243021" stop-color="#206BD8" />
            <stop offset="0.492823" stop-color="#2572FF" />
            <stop offset="0.769959" stop-color="#2089DD" />
            <stop offset="1" stop-color="#325F83" stop-opacity="0" />
        </linearGradient>
        <linearGradient id="paint3_linear" x1="476.523" y1="229.693" x2="23.8726" y2="229.693"
            gradientUnits="userSpaceOnUse">
            <stop stop-color="#3064B0" stop-opacity="0.5" />
            <stop offset="0.243021" stop-color="#206BD8" />
            <stop offset="0.492823" stop-color="#2572FF" />
            <stop offset="0.769959" stop-color="#2089DD" />
            <stop offset="1" stop-color="#325F83" stop-opacity="0.5" />
        </linearGradient>
    </defs>
</svg>